<svg xmlns="http://www.w3.org/2000/svg" width="144" height="144" viewBox="0 0 144 144">
  <g fill="#82ca9d" stroke="none">
    <path d="M25.849 34.395 C25.849 34.395, 25.849 34.395, 25.849 34.395 M25.849 34.395 C25.849 34.395, 25.849 34.395, 25.849 34.395 M19.939 48.425 C24.156 42.976, 29.287 36.52, 42.297 22.196 M19.188 47.143 C28.779 36.774, 37.618 27.018, 41.128 23.262 M12.205 58.996 C27.376 45.979, 42.96 29.173, 48.794 20.343 M14.405 60.226 C26.448 45.632, 38.405 32.774, 48.067 19.414 M17.168 63.558 C27.862 50.091, 40.17 36.288, 56.169 20.063 M16.139 64.519 C27.172 52.053, 36.933 40.354, 55.811 18.328 M16.194 68.604 C33.933 50.361, 50.058 30.224, 61.452 19.265 M16.799 70.016 C32.308 51.475, 47.722 32.854, 60.687 17.173 M16.631 77.189 C35.871 56.775, 51.624 34.051, 66.367 17.263 M15.833 75.473 C28.901 61.888, 41.335 45.507, 68.581 16.306 M17.474 83.538 C36.07 63.558, 51.472 43.468, 74.006 14.699 M15.878 81.317 C37.09 59.656, 56.265 36.215, 73.778 15.303 M15.462 88.723 C40.157 58.221, 63.873 31.56, 80.901 13.33 M13.852 90.314 C30.464 71.38, 47.644 52.62, 80.522 14.942 M17.748 94.992 C36.518 69.281, 59.976 43.178, 84.45 18.704 M16.249 93.817 C35.122 72.969, 53.961 51.37, 82.989 16.68 M19.609 96.405 C42.955 68.639, 68.236 40.43, 89.193 18.895 M19.157 97.752 C35.943 77.596, 52.189 58.949, 87.587 18.851 M20.747 102.075 C35.973 82.878, 52.08 65.737, 93.067 18.245 M21.417 100.5 C43.026 75.985, 64.873 48.808, 91.203 18.517 M23.877 105.653 C39.83 84.834, 60.463 63.262, 97.518 18.267 M24.129 103.715 C40.515 83.905, 59.446 62.842, 96.565 19.727 M24.648 108.445 C47.767 81.442, 69.908 55.535, 100.453 20.833 M25.593 107.605 C53.409 77.338, 79.371 44.954, 100.109 21.791 M27.252 113.37 C46.144 89.924, 63.657 69.562, 105.625 21.844 M27.178 110.573 C56.459 78.154, 83.992 45.482, 105.362 23.037 M28.976 112.942 C58.327 82.401, 83.951 51.555, 107.523 26.648 M31.487 113.818 C52.768 89.958, 74.19 65.125, 107.225 25.673 M34.992 118.361 C58.875 87.095, 86.955 55.29, 109.535 29.961 M34.685 116.326 C59.025 87.993, 85.616 58.161, 110.921 28.754 M38.498 117.365 C67.751 83.535, 97.263 48.243, 112.86 32.382 M36.704 118.565 C57.005 95.302, 78.307 70.713, 114.446 30.684 M42.592 121.503 C61.234 94.984, 81.564 73.607, 117.077 34.796 M41.074 120.076 C59.954 96.75, 80.088 75.674, 116.101 34.366 M43.954 121.598 C60.803 106.452, 74.345 88.993, 121.361 35.255 M44.581 124.04 C61.417 102.668, 78.507 83.838, 119.145 37.296 M46.147 126.928 C63.533 105.972, 82.756 86.025, 124.407 39.59 M48.468 125.641 C77.598 91.497, 105.763 58.937, 121.973 39.596 M49.529 126.88 C67.627 105.781, 86.218 86.211, 126.415 43.574 M51.431 126.709 C67.701 106.355, 84.184 87.37, 124.676 41.994 M53.35 131.192 C71.703 107.677, 92.21 87.329, 127.372 46.756 M54.255 128.742 C77.904 102.411, 100.623 75.07, 126.712 46.194 M58.983 131.331 C82.553 105.384, 100.014 80.366, 128.687 53.215 M59.169 129.373 C76.65 109.658, 93.805 91.46, 126.712 51.016 M64.13 128.284 C90.792 100.3, 115.231 72.779, 129.446 57.133 M65.378 129.968 C80.7 110.894, 96.36 94.592, 129.796 55.915 M71.192 128.381 C89.848 106.456, 114.073 80.26, 128.65 58.85 M69.382 130.753 C91.738 104.812, 112.911 80.668, 130.912 59.832 M74.518 129.667 C87.942 112.138, 103.079 93.975, 131.552 65.252 M75.698 130.25 C92.915 107.983, 112.207 87.543, 132.537 63.642 M78.677 128.583 C91.433 114.726, 103.793 103.383, 133.674 70.532 M80.448 131.134 C97.367 109.775, 115.739 88.361, 133.788 69.211 M83.529 131.655 C104.24 111.489, 123.544 87.917, 130.506 78.921 M83.805 132.175 C104.094 110.134, 122.811 87.776, 132.016 76.672 M93.612 128.869 C103.5 115.496, 118.32 101.868, 131.748 86.304 M91.22 128.716 C104.197 115.422, 114.855 101.851, 130.052 85.475 M98.193 124.709 C108.343 116.959, 118.803 105.028, 130.484 93.176 M99.261 127.263 C106.08 118.307, 113.511 109.256, 127.649 92.248" stroke="#82ca9d" stroke-opacity="var(--rrf-fill-opacity)" stroke-width="1" fill="none"></path>
  </g>
</svg>