<svg xmlns="http://www.w3.org/2000/svg" viewBox="0 0 128 128" width="128" height="128">
  <g stroke="currentColor" fill="#82ca9d">
    <path
      d="M21.872 40.213 C21.872 40.213, 21.872 40.213, 21.872 40.213 M21.872 40.213 C21.872 40.213, 21.872 40.213, 21.872 40.213 M19.898 48.305 C27.116 42.576, 32.306 33.438, 40.058 23.81 M18.078 49.044 C26.714 40.193, 34.579 32.982, 40.901 24.949 M16.188 57.853 C26.467 48.161, 35.765 34.687, 47.269 24.469 M15.835 57.51 C22.56 52.083, 30.075 44.132, 47.407 22.862 M15.405 63.004 C30.248 48.092, 43.978 33.309, 56.276 20.304 M15.98 64.792 C23.997 54.621, 32.819 44.821, 55.526 20.411 M18.502 69.734 C30.727 55.338, 42.99 42.152, 62.061 21.513 M17.769 69.302 C33.446 51.346, 50.622 32.524, 61.252 19.494 M20.168 75.711 C36.253 54.864, 52.431 36.779, 65.223 19.056 M20.173 73.014 C36.449 53.283, 52.174 34.117, 66.379 18.381 M18.984 78.133 C38.849 59.026, 53.568 38.922, 71.133 18.053 M20.667 78.338 C41.262 55.838, 61.26 32.448, 72.422 19.08 M23.958 82.899 C41.375 60.903, 56.696 41.401, 76.875 22.355 M22.528 83.134 C39.297 62.1, 58.635 41.069, 75.633 21.162 M22.062 86.236 C43.463 66.495, 61.779 41.043, 81.41 23.608 M22.784 87.395 C45.26 62.188, 68.462 35.354, 79.851 23.601 M24.4 91.198 C41.784 74.057, 58.345 54.049, 81.981 24.385 M26.221 91.08 C47.375 67.268, 67.269 42.841, 84.704 24.799 M28.81 92.32 C44.304 77.397, 60.169 60.075, 85.673 25.863 M28.002 93.768 C43.67 76.424, 58.666 58.292, 88.024 25.772 M32.586 95.174 C43.45 80.667, 57.629 68.365, 92.972 29.078 M31.873 95.829 C48.761 75.905, 66.303 54.634, 91.063 27.362 M33.692 100.339 C54.044 75.368, 77.292 51.944, 93.751 31.645 M34.93 99.627 C54.679 75.169, 73.228 53.626, 93.356 31.062 M36.401 101.142 C56.94 77.628, 75.173 58.076, 96.04 32.138 M36.826 101.781 C59.683 75.293, 84.482 47.888, 98.086 33.42 M38.252 104.346 C53.834 88.896, 63.61 75.548, 98.748 34.147 M39.864 104.948 C57.691 85.81, 74.726 65.878, 100.283 35.941 M43.067 106.196 C65.531 82.438, 86.507 56.501, 103.068 36.688 M44.441 105.393 C63.947 83.939, 82.5 61.419, 104.073 38.311 M47.336 107.467 C64.052 86.484, 81.269 69.465, 105.93 40.005 M47.556 107.97 C60.231 93.662, 72.551 79.597, 105.261 41.677 M51.22 107.828 C68.902 87.832, 86.755 67.516, 108.739 41.425 M52.668 107.827 C73.144 83.746, 95.085 58.78, 110.225 43.53 M58.31 110.038 C74.059 89.152, 90.948 70.166, 109.614 48.518 M56.572 109.463 C71.59 92.614, 85.896 76.85, 110.539 47.471 M60.223 110.058 C77.654 92.125, 97.557 71.869, 112.508 50.879 M61.335 111.418 C79.816 87.269, 100.054 64.964, 111.172 52.55 M63.569 111.39 C78.626 98.349, 87.86 87.147, 114.021 57.132 M64.67 111.646 C80.144 93.965, 95.934 75.68, 112.19 57.647 M72.238 109.203 C88.624 92.729, 102.119 75.073, 113.483 62.876 M73.073 110.026 C85.975 95.204, 97.318 80.756, 114.44 60.719 M79.323 111.017 C88.629 95.577, 101.423 85.706, 117.155 66.555 M77.609 108.989 C88.238 97.79, 98.823 87.688, 114.919 67.912 M83.622 108.001 C93.489 95.797, 102.017 84.658, 112.47 76.436 M84.339 108.926 C91.176 101.166, 97.723 94.634, 111.655 76.419"
      stroke="#82ca9d" stroke-width="0.5" fill="none"></path>
    <path
      d="M65.714 17.344 C73.516 16.94, 82.057 20.993, 88.867 24.936 C95.677 28.879, 102.493 34.355, 106.574 41.003 C110.655 47.651, 113.602 56.908, 113.352 64.822 C113.103 72.736, 109.291 81.908, 105.077 88.487 C100.864 95.066, 95.146 100.77, 88.074 104.296 C81.001 107.821, 71.03 109.912, 62.645 109.643 C54.259 109.374, 44.584 106.575, 37.758 102.68 C30.933 98.786, 25.451 92.82, 21.692 86.276 C17.933 79.733, 15.184 71.086, 15.203 63.421 C15.222 55.756, 17.66 47.074, 21.806 40.288 C25.952 33.503, 31.885 26.391, 40.079 22.709 C48.273 19.027, 65.17 18.703, 70.969 18.197 C76.769 17.69, 75.005 18.868, 74.876 19.668 M76.002 19.309 C83.512 20.756, 92.704 26.941, 98.525 32.141 C104.345 37.341, 108.562 43.301, 110.927 50.509 C113.292 57.717, 114.64 67.506, 112.712 75.389 C110.784 83.272, 105.427 92.178, 99.36 97.806 C93.294 103.434, 84.215 107.541, 76.313 109.157 C68.41 110.772, 59.701 109.375, 51.944 107.498 C44.186 105.621, 35.476 103.292, 29.769 97.895 C24.061 92.498, 19.901 82.637, 17.698 75.114 C15.494 67.592, 14.491 59.794, 16.545 52.76 C18.6 45.726, 24.22 38.679, 30.026 32.91 C35.831 27.141, 43.551 20.183, 51.378 18.147 C59.205 16.111, 72.667 20.358, 76.986 20.692 C81.305 21.026, 77.805 19.849, 77.291 20.152"
      stroke="currentColor" fill="none"></path>
  </g>
</svg>